<svg width="64" height="64" viewBox="0 0 64 64" fill="none" xmlns="http://www.w3.org/2000/svg">
<path d="M32 6C26.8577 6 21.8308 7.52487 17.5552 10.3818C13.2795 13.2387 9.94701 17.2994 7.97913 22.0502C6.01125 26.8011 5.49636 32.0288 6.49958 37.0723C7.50279 42.1159 9.97905 46.7486 13.6152 50.3848C17.2514 54.0209 21.8841 56.4972 26.9276 57.5004C31.9712 58.5036 37.1989 57.9887 41.9498 56.0209C46.7006 54.053 50.7613 50.7205 53.6182 46.4448C56.4751 42.1691 58 37.1423 58 32C57.9927 25.1066 55.2511 18.4976 50.3767 13.6233C45.5024 8.74889 38.8934 6.00728 32 6ZM34 53.9075V38H40C40.5304 38 41.0391 37.7893 41.4142 37.4142C41.7893 37.0391 42 36.5304 42 36C42 35.4696 41.7893 34.9609 41.4142 34.5858C41.0391 34.2107 40.5304 34 40 34H34V28C34 26.9391 34.4214 25.9217 35.1716 25.1716C35.9217 24.4214 36.9391 24 38 24H42C42.5304 24 43.0391 23.7893 43.4142 23.4142C43.7893 23.0391 44 22.5304 44 22C44 21.4696 43.7893 20.9609 43.4142 20.5858C43.0391 20.2107 42.5304 20 42 20H38C35.8783 20 33.8434 20.8429 32.3431 22.3431C30.8429 23.8434 30 25.8783 30 28V34H24C23.4696 34 22.9609 34.2107 22.5858 34.5858C22.2107 34.9609 22 35.4696 22 36C22 36.5304 22.2107 37.0391 22.5858 37.4142C22.9609 37.7893 23.4696 38 24 38H30V53.9075C24.362 53.3928 19.1394 50.7244 15.4186 46.4574C11.6978 42.1904 9.76518 36.6532 10.0228 30.9976C10.2804 25.342 12.7084 20.0034 16.8017 16.0923C20.895 12.1811 26.3385 9.9986 32 9.9986C37.6615 9.9986 43.105 12.1811 47.1983 16.0923C51.2916 20.0034 53.7196 25.342 53.9772 30.9976C54.2348 36.6532 52.3022 42.1904 48.5814 46.4574C44.8606 50.7244 39.638 53.3928 34 53.9075Z" fill="white"/>
</svg>
