<svg width="64" height="64" viewBox="0 0 64 64" fill="none" xmlns="http://www.w3.org/2000/svg">
<path d="M32 20C29.6266 20 27.3065 20.7038 25.3332 22.0224C23.3598 23.3409 21.8217 25.2151 20.9134 27.4078C20.0052 29.6005 19.7676 32.0133 20.2306 34.3411C20.6936 36.6689 21.8365 38.8071 23.5147 40.4853C25.1929 42.1635 27.3311 43.3064 29.6589 43.7694C31.9867 44.2324 34.3995 43.9948 36.5922 43.0866C38.7849 42.1783 40.6591 40.6402 41.9776 38.6668C43.2962 36.6935 44 34.3734 44 32C43.9967 28.8184 42.7313 25.7681 40.4816 23.5184C38.2319 21.2687 35.1816 20.0033 32 20ZM32 40C30.4177 40 28.871 39.5308 27.5554 38.6518C26.2398 37.7727 25.2145 36.5233 24.609 35.0615C24.0035 33.5997 23.845 31.9911 24.1537 30.4393C24.4624 28.8874 25.2243 27.462 26.3431 26.3431C27.462 25.2243 28.8874 24.4624 30.4393 24.1537C31.9911 23.845 33.5997 24.0035 35.0615 24.609C36.5233 25.2145 37.7727 26.2398 38.6518 27.5554C39.5308 28.871 40 30.4177 40 32C40 34.1217 39.1571 36.1566 37.6569 37.6569C36.1566 39.1571 34.1217 40 32 40ZM44 6H20C16.2882 6.00397 12.7295 7.48024 10.1049 10.1049C7.48024 12.7295 6.00397 16.2882 6 20V44C6.00397 47.7118 7.48024 51.2705 10.1049 53.8951C12.7295 56.5198 16.2882 57.996 20 58H44C47.7118 57.996 51.2705 56.5198 53.8951 53.8951C56.5198 51.2705 57.996 47.7118 58 44V20C57.996 16.2882 56.5198 12.7295 53.8951 10.1049C51.2705 7.48024 47.7118 6.00397 44 6ZM54 44C54 46.6522 52.9464 49.1957 51.0711 51.0711C49.1957 52.9464 46.6522 54 44 54H20C17.3478 54 14.8043 52.9464 12.9289 51.0711C11.0536 49.1957 10 46.6522 10 44V20C10 17.3478 11.0536 14.8043 12.9289 12.9289C14.8043 11.0536 17.3478 10 20 10H44C46.6522 10 49.1957 11.0536 51.0711 12.9289C52.9464 14.8043 54 17.3478 54 20V44ZM48 19C48 19.5933 47.8241 20.1734 47.4944 20.6667C47.1648 21.1601 46.6962 21.5446 46.148 21.7716C45.5999 21.9987 44.9967 22.0581 44.4147 21.9424C43.8328 21.8266 43.2982 21.5409 42.8787 21.1213C42.4591 20.7018 42.1734 20.1672 42.0576 19.5853C41.9419 19.0033 42.0013 18.4001 42.2284 17.8519C42.4554 17.3038 42.8399 16.8352 43.3333 16.5056C43.8266 16.1759 44.4067 16 45 16C45.7956 16 46.5587 16.3161 47.1213 16.8787C47.6839 17.4413 48 18.2044 48 19Z" fill="white"/>
</svg>
