<svg width="64" height="64" viewBox="0 0 64 64" fill="none" xmlns="http://www.w3.org/2000/svg">
<path d="M54 6H10C8.93913 6 7.92172 6.42143 7.17157 7.17157C6.42143 7.92172 6 8.93913 6 10V54C6 55.0609 6.42143 56.0783 7.17157 56.8284C7.92172 57.5786 8.93913 58 10 58H54C55.0609 58 56.0783 57.5786 56.8284 56.8284C57.5786 56.0783 58 55.0609 58 54V10C58 8.93913 57.5786 7.92172 56.8284 7.17157C56.0783 6.42143 55.0609 6 54 6ZM54 54H10V10H54V54ZM24 28V44C24 44.5304 23.7893 45.0391 23.4142 45.4142C23.0391 45.7893 22.5304 46 22 46C21.4696 46 20.9609 45.7893 20.5858 45.4142C20.2107 45.0391 20 44.5304 20 44V28C20 27.4696 20.2107 26.9609 20.5858 26.5858C20.9609 26.2107 21.4696 26 22 26C22.5304 26 23.0391 26.2107 23.4142 26.5858C23.7893 26.9609 24 27.4696 24 28ZM46 35V44C46 44.5304 45.7893 45.0391 45.4142 45.4142C45.0391 45.7893 44.5304 46 44 46C43.4696 46 42.9609 45.7893 42.5858 45.4142C42.2107 45.0391 42 44.5304 42 44V35C42 33.6739 41.4732 32.4021 40.5355 31.4645C39.5979 30.5268 38.3261 30 37 30C35.6739 30 34.4021 30.5268 33.4645 31.4645C32.5268 32.4021 32 33.6739 32 35V44C32 44.5304 31.7893 45.0391 31.4142 45.4142C31.0391 45.7893 30.5304 46 30 46C29.4696 46 28.9609 45.7893 28.5858 45.4142C28.2107 45.0391 28 44.5304 28 44V28C28.0025 27.5101 28.1847 27.0382 28.512 26.6737C28.8394 26.3092 29.2891 26.0776 29.7759 26.0227C30.2627 25.9678 30.7528 26.0935 31.153 26.376C31.5533 26.6584 31.836 27.078 31.9475 27.555C33.3005 26.6372 34.8779 26.1052 36.5104 26.0163C38.1428 25.9274 39.7687 26.2848 41.2134 27.0502C42.6581 27.8155 43.867 28.96 44.7103 30.3606C45.5536 31.7612 45.9995 33.3651 46 35ZM25 21C25 21.5933 24.8241 22.1734 24.4944 22.6667C24.1648 23.1601 23.6962 23.5446 23.1481 23.7716C22.5999 23.9987 21.9967 24.0581 21.4147 23.9424C20.8328 23.8266 20.2982 23.5409 19.8787 23.1213C19.4591 22.7018 19.1734 22.1672 19.0576 21.5853C18.9419 21.0033 19.0013 20.4001 19.2284 19.8519C19.4554 19.3038 19.8399 18.8352 20.3333 18.5056C20.8266 18.1759 21.4067 18 22 18C22.7956 18 23.5587 18.3161 24.1213 18.8787C24.6839 19.4413 25 20.2044 25 21Z" fill="white"/>
</svg>
