<svg width="46" height="37" viewBox="0 0 46 37" fill="none" xmlns="http://www.w3.org/2000/svg">
<path d="M32.2368 10.3323H29.2138H13.6649C6.04187 10.3377 -0.118279 16.2913 0.00172401 23.5873C0.121727 30.7851 6.6076 36.4167 14.1506 36.4167H29.2196C29.2196 36.4167 29.2253 36.4167 29.231 36.4167H32.1682V36.3785C32.1682 36.3785 32.1853 36.4167 32.2082 36.4167C38.0998 36.4167 43.4999 32.8915 45.2371 27.5164C48.1343 18.556 41.197 10.3323 32.2368 10.3323ZM32.2368 31.5382H29.2138H13.9449C9.88767 31.5382 6.16187 28.9679 5.31042 25.1808C4.12182 19.8984 8.31049 15.2108 13.6706 15.2108H32.1682H32.2425C36.9797 15.2108 40.8027 18.8616 40.8027 23.3745C40.8027 27.8874 36.9797 31.5382 32.2425 31.5382H32.2368Z" fill="url(#paint0_linear_415_1646)"/>
<path d="M12.2248 6.05305C13.8975 6.05305 15.2535 4.75837 15.2535 3.16129C15.2535 1.56422 13.8975 0.269531 12.2248 0.269531C10.5521 0.269531 9.19617 1.56422 9.19617 3.16129C9.19617 4.75837 10.5521 6.05305 12.2248 6.05305Z" fill="url(#paint1_linear_415_1646)"/>
<path d="M23.4251 6.05305C25.0978 6.05305 26.4538 4.75837 26.4538 3.16129C26.4538 1.56422 25.0978 0.269531 23.4251 0.269531C21.7525 0.269531 20.3965 1.56422 20.3965 3.16129C20.3965 4.75837 21.7525 6.05305 23.4251 6.05305Z" fill="url(#paint2_linear_415_1646)"/>
<path d="M34.2596 6.05305C35.9323 6.05305 37.2882 4.75837 37.2882 3.16129C37.2882 1.56422 35.9323 0.269531 34.2596 0.269531C32.5869 0.269531 31.231 1.56422 31.231 3.16129C31.231 4.75837 32.5869 6.05305 34.2596 6.05305Z" fill="url(#paint3_linear_415_1646)"/>
<defs>
<linearGradient id="paint0_linear_415_1646" x1="-6.88092" y1="23.884" x2="53.3907" y2="24.0433" gradientUnits="userSpaceOnUse">
<stop offset="0.0739016" stop-color="#947FFE"/>
<stop offset="1" stop-color="#2AA9EC"/>
</linearGradient>
<linearGradient id="paint1_linear_415_1646" x1="8.2882" y1="3.27425" x2="16.2413" y2="3.28676" gradientUnits="userSpaceOnUse">
<stop offset="0.0739016" stop-color="#947FFE"/>
<stop offset="1" stop-color="#2AA9EC"/>
</linearGradient>
<linearGradient id="paint2_linear_415_1646" x1="19.4885" y1="3.27425" x2="27.4416" y2="3.28676" gradientUnits="userSpaceOnUse">
<stop offset="0.0739016" stop-color="#947FFE"/>
<stop offset="1" stop-color="#2AA9EC"/>
</linearGradient>
<linearGradient id="paint3_linear_415_1646" x1="30.323" y1="3.27425" x2="38.2761" y2="3.28676" gradientUnits="userSpaceOnUse">
<stop offset="0.0739016" stop-color="#947FFE"/>
<stop offset="1" stop-color="#2AA9EC"/>
</linearGradient>
</defs>
</svg>
