<svg width="103" height="39" viewBox="0 0 103 39" fill="none" xmlns="http://www.w3.org/2000/svg">
<g clip-path="url(#clip0_411_1632)">
<path fill-rule="evenodd" clip-rule="evenodd" d="M15.5349 3.10386C15.5349 4.81807 14.1537 6.20771 12.45 6.20771C10.7463 6.20771 9.36514 4.81807 9.36514 3.10386C9.36514 1.38964 10.7463 0 12.45 0C14.1537 0 15.5349 1.38964 15.5349 3.10386ZM29.7543 10.7991H32.8334C41.96 10.7991 49.0261 19.6246 46.0751 29.2407C44.3056 35.0092 38.8052 38.7924 32.8043 38.7924C32.781 38.7924 32.7635 38.7514 32.7635 38.7514V38.7924H29.7718H29.7601H14.4114C6.72833 38.7924 0.122034 32.7486 -0.000197104 25.0241C-0.122428 17.1942 6.1521 10.8049 13.9167 10.7991H29.7543ZM29.7543 33.5568H32.8334H32.8392C37.6644 33.5568 41.5584 29.6389 41.5584 24.7957C41.5584 19.9525 37.6644 16.0347 32.8392 16.0347H32.7635H13.9225C8.46285 16.0347 4.1964 21.0652 5.40707 26.7342C6.27433 30.7985 10.0693 33.5568 14.2019 33.5568H29.7543ZM23.8581 6.20771C25.5618 6.20771 26.943 4.81807 26.943 3.10386C26.943 1.38964 25.5618 0 23.8581 0C22.1544 0 20.7732 1.38964 20.7732 3.10386C20.7732 4.81807 22.1544 6.20771 23.8581 6.20771ZM37.9788 3.10386C37.9788 4.81807 36.5977 6.20771 34.894 6.20771C33.1902 6.20771 31.8091 4.81807 31.8091 3.10386C31.8091 1.38964 33.1902 0 34.894 0C36.5977 0 37.9788 1.38964 37.9788 3.10386Z" fill="url(#paint0_linear_411_1632)"/>
<path d="M92.3545 22.6113V36.1102C92.3545 37.7675 91.4465 38.7983 89.9099 38.7983C88.3733 38.7983 87.4071 37.7675 87.4071 36.1102V23.1853C87.4071 17.8677 85.1895 15.0625 80.987 15.0625C76.7846 15.0625 73.9384 18.4943 73.9384 24.0989V36.1102C73.9384 37.7675 73.0304 38.7983 71.4356 38.7983C69.9572 38.7983 68.9909 37.7675 68.9909 36.1102V23.1853C68.9909 17.8677 66.7733 15.0625 62.5127 15.0625C58.2521 15.0625 55.464 18.4943 55.464 24.0989V36.1102C55.464 37.7675 54.556 38.7983 52.9612 38.7983C51.3664 38.7983 50.5166 37.7675 50.5166 36.1102V13.5165C50.5166 11.8006 51.4246 10.7698 52.9612 10.7698C54.4978 10.7698 55.464 11.8006 55.464 13.5165V14.2017H55.5746C57.3383 11.742 60.1787 10.4302 63.6477 10.4302C67.6871 10.4302 70.5858 12.0875 72.1748 15.1738H72.2854C74.1596 12.1402 77.4016 10.4302 81.895 10.4302C88.8855 10.4302 92.3545 14.6643 92.3545 22.6113Z" fill="#0D0628"/>
<path d="M102.89 24.0988V36.1101C102.89 37.7675 101.982 38.7982 100.387 38.7982C98.7922 38.7982 97.9424 37.7675 97.9424 36.1101V13.5164C97.9424 11.8005 98.8504 10.7698 100.387 10.7698C101.924 10.7698 103 11.7712 103 13.4871V14.2016" fill="#0D0628"/>
</g>
<defs>
<linearGradient id="paint0_linear_411_1632" x1="-0.00195312" y1="19.3962" x2="46.7551" y2="19.3962" gradientUnits="userSpaceOnUse">
<stop stop-color="#947FFE"/>
<stop offset="0.99" stop-color="#2AA9EC"/>
</linearGradient>
<clipPath id="clip0_411_1632">
<rect width="103" height="38.7982" fill="white"/>
</clipPath>
</defs>
</svg>
