<svg width="250" height="94" viewBox="0 0 250 94" fill="none" xmlns="http://www.w3.org/2000/svg">
<g clip-path="url(#clip0_406_1652)">
<path fill-rule="evenodd" clip-rule="evenodd" d="M37.7069 7.52C37.7069 11.6732 34.3546 15.04 30.2193 15.04C26.0841 15.04 22.7318 11.6732 22.7318 7.52C22.7318 3.36682 26.0841 0 30.2193 0C34.3546 0 37.7069 3.36682 37.7069 7.52ZM72.2201 26.164H79.6935C101.845 26.164 118.996 47.5463 111.834 70.8441C107.539 84.8199 94.1883 93.9858 79.6229 93.9858C79.5664 93.9858 79.524 93.8865 79.524 93.8865V93.9858H72.2625H72.2342H34.98C16.3317 93.9858 0.297033 79.3431 0.000355938 60.6283C-0.296321 41.658 14.9331 26.1781 33.7792 26.164H72.2201ZM72.2201 81.3012H79.6935H79.7076C91.4193 81.3012 100.871 71.8089 100.871 60.0749C100.871 48.3409 91.4193 38.8486 79.7076 38.8486H79.524H33.7933C20.5417 38.8486 10.1863 51.0367 13.1248 64.7713C15.2298 74.6183 24.4409 81.3012 34.4714 81.3012H72.2201ZM57.9088 15.04C62.0441 15.04 65.3964 11.6732 65.3964 7.52C65.3964 3.36682 62.0441 0 57.9088 0C53.7735 0 50.4212 3.36682 50.4212 7.52C50.4212 11.6732 53.7735 15.04 57.9088 15.04ZM92.1825 7.52C92.1825 11.6732 88.8302 15.04 84.6949 15.04C80.5596 15.04 77.2073 11.6732 77.2073 7.52C77.2073 3.36682 80.5596 0 84.6949 0C88.8302 0 92.1825 3.36682 92.1825 7.52Z" fill="white"/>
<path d="M224.161 54.7825V87.4874C224.161 91.5028 221.957 94 218.227 94C214.497 94 212.152 91.5028 212.152 87.4874V56.173C212.152 43.2896 206.77 36.4933 196.57 36.4933C186.37 36.4933 179.461 44.8078 179.461 58.3864V87.4874C179.461 91.5028 177.257 94 173.386 94C169.798 94 167.453 91.5028 167.453 87.4874V56.173C167.453 43.2896 162.07 36.4933 151.729 36.4933C141.388 36.4933 134.621 44.8078 134.621 58.3864V87.4874C134.621 91.5028 132.417 94 128.546 94C124.675 94 122.612 91.5028 122.612 87.4874V32.7475C122.612 28.5902 124.816 26.093 128.546 26.093C132.275 26.093 134.621 28.5902 134.621 32.7475V34.4075H134.889C139.17 28.4483 146.064 25.27 154.484 25.27C164.288 25.27 171.324 29.2854 175.181 36.7628H175.449C179.998 29.4131 187.867 25.27 198.774 25.27C215.741 25.27 224.161 35.5284 224.161 54.7825Z" fill="white"/>
<path d="M249.732 58.3862V87.4872C249.732 91.5026 247.528 93.9998 243.657 93.9998C239.786 93.9998 237.724 91.5026 237.724 87.4872V32.7473C237.724 28.59 239.928 26.0928 243.657 26.0928C247.387 26.0928 250 28.519 250 32.6763V34.4073" fill="white"/>
</g>
<defs>
<clipPath id="clip0_406_1652">
<rect width="250" height="94" fill="white"/>
</clipPath>
</defs>
</svg>
